<svg xmlns="http://www.w3.org/2000/svg" width="140.464" height="144.318" viewBox="0 0 140.464 144.318">
  <g id="Group_3" data-name="Group 3" transform="translate(-550.499 -196.176)">
    <path id="Path_21" data-name="Path 21" d="M621.555,199.728s-32.008-1.367-49.941,16.693-17.791,52.545-17.791,52.545" transform="translate(-0.823 -1)" fill="none" stroke="#7d6eff" stroke-linecap="round" stroke-width="5"/>
    <path id="Path_23" data-name="Path 23" d="M621.555,199.728s-32.008-1.367-49.941,16.693-17.791,52.545-17.791,52.545" transform="translate(1242.286 537.67) rotate(180)" fill="none" stroke="#7d6eff" stroke-linecap="round" stroke-width="5"/>
    <path id="Path_24" data-name="Path 24" d="M600.677,199.721s-22.142-.945-34.547,11.547-12.307,36.348-12.307,36.348" transform="translate(868.603 -332.341) rotate(90)" fill="none" stroke="#7d6eff" stroke-linecap="round" stroke-width="5"/>
    <path id="Path_25" data-name="Path 25" d="M46.854.016S24.712-.929,12.307,11.564,0,47.912,0,47.912" transform="translate(572.564 315.189) rotate(-90)" fill="none" stroke="#7d6eff" stroke-linecap="round" stroke-width="5"/>
    <path id="Path_26" data-name="Path 26" d="M25.385.009S13.389-.5,6.668,6.265,0,25.958,0,25.958" transform="translate(595.347 242.239)" fill="none" stroke="#7d6eff" stroke-linecap="round" stroke-width="5"/>
    <path id="Path_27" data-name="Path 27" d="M25.385.009S13.389-.5,6.668,6.265,0,25.958,0,25.958" transform="translate(646.117 294.432) rotate(-180)" fill="none" stroke="#7d6eff" stroke-linecap="round" stroke-width="5"/>
    <path id="Path_28" data-name="Path 28" d="M10.574,0s-5-.213-7.8,2.606S0,10.813,0,10.813" transform="translate(632.603 257.761) rotate(90)" fill="none" stroke="#7d6eff" stroke-linecap="round" stroke-width="5"/>
    <path id="Path_29" data-name="Path 29" d="M10.574,0s-5-.213-7.8,2.606S0,10.813,0,10.813" transform="translate(609.861 278.91) rotate(-90)" fill="none" stroke="#7d6eff" stroke-linecap="round" stroke-width="5"/>
    <g id="Ellipse_1" data-name="Ellipse 1" transform="translate(617 264)" fill="#fff" stroke="#7d6eff" stroke-width="5">
      <circle cx="4" cy="4" r="4" stroke="none"/>
      <circle cx="4" cy="4" r="1.5" fill="none"/>
    </g>
  </g>
</svg>
